<svg preserveAspectRatio="none" width="100%" height="100%" overflow="visible" style="display: block;" viewBox="0 0 20 20" fill="none" xmlns="http://www.w3.org/2000/svg">
<g id="hugeicons:hand-pointing-right-04">
<path id="Vector" d="M11.2375 8.9625H13.7408M13.7408 8.9625H16.6625C17.355 8.9625 17.9167 8.4025 17.9167 7.71167C17.9167 7.02 17.355 6.46 16.6625 6.46H12.1092M13.7408 8.9625L13.7183 9.84167C13.7111 10.1234 13.6325 10.3986 13.49 10.6417C13.3474 10.8848 13.1456 11.0878 12.9033 11.2317M12.1092 6.46H8.30667M12.1092 6.46L9.80917 4.29833C8.25333 2.98833 7.11833 3.67667 6.48833 4.16L4.45667 5.50583C2.73417 6.52667 2.08333 7.70833 2.08333 8.70167V12.7683C2.08333 14.6575 4.06833 16.4183 5.88833 16.4183L10.2217 16.4583C10.6281 16.4622 11.0221 16.3177 11.3295 16.0518C11.637 15.7859 11.8369 15.417 11.8917 15.0142L12.05 13.7308M12.9033 11.2317C12.6533 11.38 12.3617 11.4658 12.0492 11.4658H11.2125M12.9033 11.2317L12.8583 12.3442C12.8475 12.7794 12.6667 13.193 12.3548 13.4967C12.0429 13.8004 11.6245 13.97 11.1892 13.9692H10.3525" stroke="var(--stroke-0, #362997)" stroke-width="1.5" stroke-linecap="round" stroke-linejoin="round"/>
</g>
</svg>
