<svg preserveAspectRatio="none" width="100%" height="100%" overflow="visible" style="display: block;" viewBox="0 0 22.7065 22.7063" fill="none" xmlns="http://www.w3.org/2000/svg">
<g id="Group">
<path id="Vector" d="M7.81859 4.28415C8.40766 4.87322 9.58934 4.76955 11.353 3.31336M11.353 3.31336C11.0923 3.09973 10.8217 2.85389 10.5413 2.57585C7.82448 -0.115028 4.12512 0.411601 2.39207 2.57585C1.19508 4.07209 -1.86809 7.79501 5.6296 21.0609C5.94063 21.6099 6.55916 21.9563 7.22481 21.9563C8.28749 21.9563 9.11808 21.108 9.15224 20.1184C9.22647 18.0189 9.63293 15.5978 11.353 15.5978C13.0731 15.5978 13.4807 18.0189 13.5538 20.1184C13.5879 21.108 14.4185 21.9563 15.4812 21.9563C16.1469 21.9563 16.7654 21.6099 17.0764 21.0609C24.5753 7.79383 21.5109 4.07209 20.314 2.57585C18.5809 0.411601 14.8815 -0.115028 12.1648 2.57585C11.8844 2.8531 11.6138 3.09894 11.353 3.31336Z" stroke="var(--stroke-0, #362997)" stroke-width="1.5" stroke-linecap="round" stroke-linejoin="round"/>
<path id="Vector_2" d="M8.99673 10.1749H1.92788M20.7781 10.1749H13.7093M9.45267 8.27452C8.84475 8.88244 8.84475 11.4673 9.45267 12.0752C10.0606 12.6831 12.6454 12.6831 13.2534 12.0752C13.8613 11.4673 13.8613 8.88244 13.2534 8.27452C12.6454 7.6666 10.0606 7.6666 9.45267 8.27452Z" stroke="var(--stroke-0, #362997)" stroke-width="1.5" stroke-linecap="round" stroke-linejoin="round"/>
</g>
</svg>
