<svg preserveAspectRatio="none" width="100%" height="100%" overflow="visible" style="display: block;" viewBox="0 0 18 18" fill="none" xmlns="http://www.w3.org/2000/svg">
<g id="ep:arrow-left">
<path id="Vector" d="M11.0793 2.47877C11.1464 2.47881 11.2127 2.49273 11.2746 2.51881C11.3366 2.54499 11.3936 2.58288 11.4406 2.63112C11.5369 2.73004 11.59 2.86319 11.59 3.00123C11.5899 3.13908 11.5367 3.27154 11.4406 3.37038L5.95816 8.99342L5.96402 8.99928L5.74331 8.78444L5.95816 9.00416L11.4406 14.6282C11.5371 14.7271 11.5909 14.8601 11.591 14.9983C11.591 15.1365 11.537 15.2695 11.4406 15.3684C11.3936 15.4167 11.3366 15.4555 11.2746 15.4817C11.2127 15.5077 11.1463 15.5207 11.0793 15.5208C11.0119 15.5208 10.945 15.5079 10.883 15.4817C10.8209 15.4555 10.7649 15.4167 10.7179 15.3684L4.88784 9.386C4.78706 9.28253 4.73072 9.14372 4.73062 8.99928C4.73062 8.85466 4.78692 8.71517 4.88784 8.61159L10.7179 2.63112C10.7648 2.58296 10.821 2.54498 10.883 2.51881C10.945 2.49263 11.0119 2.47877 11.0793 2.47877Z" fill="var(--fill-0, #DF2028)" fill-opacity="0.6" stroke="var(--stroke-0, #DF2028)" stroke-width="0.015625"/>
</g>
</svg>
