<svg preserveAspectRatio="none" width="100%" height="100%" overflow="visible" style="display: block;" viewBox="0 0 14 14" fill="none" xmlns="http://www.w3.org/2000/svg">
<g id="ep:arrow-left">
<path id="Vector" d="M8.33175 2.04225L3.7975 6.69375C3.71786 6.77545 3.67329 6.88503 3.67329 6.99913C3.67329 7.11322 3.71786 7.2228 3.7975 7.3045L8.33175 11.9578C8.36885 11.9959 8.4132 12.0261 8.46219 12.0468C8.51118 12.0675 8.56382 12.0781 8.617 12.0781C8.67018 12.0781 8.72282 12.0675 8.77181 12.0468C8.8208 12.0261 8.86515 11.9959 8.90225 11.9578C8.97858 11.8796 9.02131 11.7747 9.02131 11.6655C9.02131 11.5563 8.97858 11.4514 8.90225 11.3732L4.63837 6.99913L8.90225 2.62587C8.97831 2.54778 9.02088 2.44308 9.02088 2.33406C9.02088 2.22505 8.97831 2.12034 8.90225 2.04225C8.86515 2.00415 8.8208 1.97387 8.77181 1.95319C8.72282 1.93251 8.67018 1.92186 8.617 1.92186C8.56382 1.92186 8.51118 1.93251 8.46219 1.95319C8.4132 1.97387 8.36885 2.00415 8.33175 2.04225Z" fill="var(--fill-0, #DF2028)" fill-opacity="0.6"/>
</g>
</svg>
