<svg preserveAspectRatio="none" width="100%" height="100%" overflow="visible" style="display: block;" viewBox="0 0 24 24" fill="none" xmlns="http://www.w3.org/2000/svg">
<g id="fluent:person-call-24-filled">
<path id="Vector" d="M17.715 15.953C17.471 15.6967 17.2925 15.3854 17.1944 15.0454C17.0964 14.7054 17.0819 14.3468 17.152 14H6.252C5.65578 14.0005 5.08415 14.2377 4.66266 14.6594C4.24116 15.081 4.00426 15.6528 4.004 16.249V17.169C4.004 17.741 4.182 18.299 4.514 18.765C6.056 20.929 8.58 22 12 22C12.39 22 12.7677 21.986 13.133 21.958C13.0031 21.5977 12.9674 21.2102 13.0292 20.8322C13.0909 20.4542 13.2482 20.0982 13.486 19.798L14.286 18.788C14.5469 18.4597 14.8961 18.2128 15.2926 18.0764C15.6891 17.94 16.1164 17.9197 16.524 18.018L17.362 18.221C17.882 17.784 18.192 17.246 18.31 16.577L17.715 15.953ZM12 2.005C12.6566 2.005 13.3068 2.13433 13.9134 2.3856C14.52 2.63688 15.0712 3.00517 15.5355 3.46947C15.9998 3.93376 16.3681 4.48495 16.6194 5.09158C16.8707 5.69821 17 6.34839 17 7.005C17 7.66161 16.8707 8.31179 16.6194 8.91842C16.3681 9.52504 15.9998 10.0762 15.5355 10.5405C15.0712 11.0048 14.52 11.3731 13.9134 11.6244C13.3068 11.8757 12.6566 12.005 12 12.005C10.6739 12.005 9.40215 11.4782 8.46447 10.5405C7.52678 9.60285 7 8.33108 7 7.005C7 5.67892 7.52678 4.40715 8.46447 3.46947C9.40215 2.53178 10.6739 2.005 12 2.005ZM18.192 13.995L18.668 12.79C18.91 12.176 19.588 11.857 20.216 12.062L20.647 12.203C21.371 12.44 21.973 13.009 21.997 13.772C22.097 16.882 19.521 21.355 16.784 22.827C16.111 23.189 15.316 22.95 14.749 22.436L14.412 22.131C14.1764 21.9177 14.0306 21.6228 14.0042 21.306C13.9779 20.9893 14.0729 20.6743 14.27 20.425L15.07 19.415C15.36 19.048 15.837 18.885 16.29 18.995L17.582 19.308C18.6847 18.578 19.276 17.5517 19.356 16.229L18.439 15.265C18.2808 15.099 18.1735 14.8912 18.1297 14.6661C18.0859 14.4411 18.1075 14.2082 18.192 13.995Z" fill="var(--fill-0, #362997)"/>
</g>
</svg>
