<svg preserveAspectRatio="none" width="100%" height="100%" overflow="visible" style="display: block;" viewBox="0 0 24 24" fill="none" xmlns="http://www.w3.org/2000/svg">
<g id="hugeicons:hand-pointing-right-04">
<path id="Vector" d="M13.485 10.755H16.489M16.489 10.755H19.995C20.826 10.755 21.5 10.083 21.5 9.254C21.5 8.424 20.826 7.752 19.995 7.752H14.531M16.489 10.755L16.462 11.81C16.4533 12.148 16.359 12.4783 16.188 12.77C16.0169 13.0617 15.7747 13.3053 15.484 13.478M14.531 7.752H9.968M14.531 7.752L11.771 5.158C9.904 3.586 8.542 4.412 7.786 4.992L5.348 6.607C3.281 7.832 2.5 9.25 2.5 10.442V15.322C2.5 17.589 4.882 19.702 7.066 19.702L12.266 19.75C12.7538 19.7547 13.2265 19.5812 13.5955 19.2622C13.9644 18.9431 14.2043 18.5003 14.27 18.017L14.46 16.477M15.484 13.478C15.184 13.656 14.834 13.759 14.459 13.759H13.455M15.484 13.478L15.43 14.813C15.4169 15.3352 15.2001 15.8316 14.8258 16.196C14.4514 16.5605 13.9494 16.7639 13.427 16.763H12.423" stroke="var(--stroke-0, #141414)" stroke-width="1.5" stroke-linecap="round" stroke-linejoin="round"/>
</g>
</svg>
